<svg xmlns="http://www.w3.org/2000/svg" viewBox="0 0 32 32"><symbol xmlns="http://www.w3.org/2000/svg" viewBox="0 0 32 32" id="allAccess">
<g transform="translate(-1369, -1123)">
<rect fill="none" x="0" y="0" width="1680" height="3224"/>
<g transform="translate(1369, 1123)">
<rect id="allAccess_Rectangle-2" fill="#FB8C00" x="0" y="0" width="32" height="32" rx="6"/>
<path d="M19.875,11 C21,9 25,8 25,8 L25,9 C26.25,9 27,8 27,8 C27,8 27,11 26,12 C23.621,14.379 19.4,15.238 19,17 C19,15.323 18.882,12.765 19.875,11 Z" fill="#FF9800"/>
<path d="M19,17.976 C19,20.425 21.57,23 21.57,23 C21.57,23 28,20.057 28,11.122 C28,11.122 27,11 24,11 C20,11 19,13.815 19,17.976 Z" fill="#F57C00"/>
<path d="M12.125,11 C11,9 7,8 7,8 L7,9 C5.75,9 5,8 5,8 C5,8 5,11 6,12 C8.379,14.379 12.6,15.238 13,17 C13,15.323 13.118,12.765 12.125,11 Z" fill="#FF9800"/>
<path d="M8,11 C5,11 4,11 4,11 C4,20.027 10.43,23 10.43,23 C10.43,23 13,20.398 13,17.925 C13,13.721 12,11 8,11 Z" fill="#F57C00"/>
<path d="M16,0 C14,0 12.16,0 10.5,0 C11.5,2.333 12,4 12,5 C12,5 13.625,4.875 14,4 C14,5.125 16,6 16,6 C16,6 18,5.125 18,4 C18.375,4.875 20,5 20,5 C20,4 20.5,2.333 21.5,0 C19.8333333,0 18,0 16,0 Z" fill="#F57C00"/>
<path d="M32,24.88 C27.41,28.25 20.173,28.96 20.173,28.96 L21.5,23 C21.5,23 23,18 28,18 C29.64,18 30.96,18.10 32,18.25 L32,24.88 Z" fill="#E7E7E7"/>
<path d="M0,24.88 L0,18.25 C1.031,18.10 2.353,18 4,18 C9,18 10.5,23 10.5,23 L11.827,28.962 C11.827,28.962 4.580,28.25 0,24.88 Z" fill="#E7E7E7"/>
<path d="M18,22 L16.008,22 L16,22 L15.992,22 L14,22 C10.962,22 10,22.791 10,25 C10,28 11.962,30 15,30 L15.992,30 L16,30 L16.008,30 L17,30 C20.038,30 22,28 22,25 C22,22.791 21.038,22 18,22 Z" fill="#BCAAA4"/>
<path d="M13.438,29.778 C13.466,29.786 13.494,29.794 13.522,29.801 C13.75,29.859 13.986,29.905 14.232,29.935 C14.483,29.966 14.732,30 15,30 L15.992,30 L16,30 L16.008,30 L17,30 C17.235,30 17.451,29.967 17.673,29.943 C17.691,29.932 17.709,29.94 17.727,29.938 C17.743,29.936 17.76,29.936 17.776,29.934 C18.02,29.904 18.253,29.858 18.479,29.8 C18.508,29.793 18.537,29.784 18.565,29.776 C18.568,29.775 18.57,29.775 18.573,29.774 C19.224,29.595 19.795,29.306 20.277,28.917 C17.999,28.875 16.124,26.746 16.13,25.875 L15.875,25.875 C15.875,26.747 14,28.875 11.722,28.917 C12.207,29.309 12.782,29.6 13.438,29.778 Z" fill="#A1887F"/>
<path d="M16.008,22.003 C16.005,22.003 16.003,22.003 16,22.003 C15.997,22.003 15.995,22.003 15.992,22.003 C14.339,22.003 13,21.898 13,23.002 C13,24.106 15.016,26 16.008,26 C17,26 19,24.106 19,23.002 C19,21.898 17.66,22.003 16.008,22.003 Z" fill="#3E2723"/>
<path d="M23.25,13 C25.379,13 26,13 26,13 C26,13 24.974,13.804 25,14.75 C25.038,16.104 24.145,18 22,18 C20.875,18 19,17.999 19,17.999 C19,17.999 18.993,13 23.25,13 Z" fill="#795548"/>
<path d="M22.5,14 C23.014,14 23.428,14.053 23.789,14.123 C23.92,14.388 24,14.684 24,15 C24,16.105 23.105,17 22,17 C21.278,17 20.651,16.614 20.3,16.041 C20.607,15.027 21.23,14 22.5,14 Z" fill="#FFB300"/>
<path d="M22.169,14.034 C22.638,14.117 23,14.508 23,15 C23,15.552 22.552,16 22,16 C21.448,16 21,15.552 21,15 C21,14.855 21.034,14.718 21.09,14.594 C21.37,14.307 21.725,14.104 22.169,14.034 Z" fill="#212121"/>
<path d="M8.743,13 C6.614,13 6,13 6,13 C6,13 7.026,13.804 7,14.75 C6.962,16.104 7.855,18 10,18 C11.125,18 13,17.999 13,17.999 C13,17.999 13,13 8.743,13 Z" fill="#795548"/>
<path d="M9.5,14 C8.986,14 8.572,14.053 8.211,14.123 C8.08,14.388 8,14.684 8,15 C8,16.105 8.895,17 10,17 C10.722,17 11.349,16.614 11.7,16.041 C11.393,15.027 10.77,14 9.5,14 Z" fill="#FFB300"/>
<path d="M9.831,14.034 C9.362,14.117 9,14.508 9,15 C9,15.552 9.448,16 10,16 C10.552,16 11,15.552 11,15 C11,14.855 10.966,14.718 10.91,14.594 C10.63,14.307 10.275,14.104 9.831,14.034 Z" fill="#212121"/>
</g>
</g>
</symbol><use xmlns:xlink="http://www.w3.org/1999/xlink" xlink:href="#allAccess"/></svg>