<svg version="1.1" id="Capa_1" xmlns="http://www.w3.org/2000/svg" xmlns:xlink="http://www.w3.org/1999/xlink" x="0px" y="0px" viewBox="0 0 113.4 113.4" style="enable-background:new 0 0 113.4 113.4;" xml:space="preserve">
                    <style type="text/css">
                        .st0 {
                            fill-rule: evenodd;
                            clip-rule: evenodd;
                            fill: #4CAAE9;
                        }
                    </style>
                    <g>
                        <path class="st0" d="M41.6,56.9c0-3.1-1.2-6-3.3-8.1c-2.1-2.2-5-3.4-8-3.4c-2.5,0-4.9,0.9-6.8,2.3c-0.5-0.8-1.1-1.6-1.8-2.3&#10;&#9;&#9;l-4.3,4.4c1,1,1.5,2.3,1.5,3.7v3.4v0v0v21.4H25V67.1c1.6,0.8,3.3,1.3,5.2,1.3C36.5,68.4,41.5,63.2,41.6,56.9z M25,56.9L25,56.9&#10;&#9;&#9;c0-2.9,2.3-5.3,5.2-5.3c1.4,0,2.7,0.6,3.7,1.6c1,1,1.5,2.3,1.5,3.7c0,2.9-2.3,5.3-5.2,5.3C27.3,62.2,25,59.8,25,56.9z"/>
                        <path class="st0" d="M44.6,39.7v20.6c0,3.1,1.2,6,3.3,8.2l4.3-4.4c-1-1-1.5-2.3-1.5-3.8V39.7H44.6z"/>
                        <path class="st0" d="M63.8,53.3c-3.1,0-4.9,0.6-6.4,2c-1.3,1.3-2.1,2.6-2.2,4.7c0,0,0,0.2,0,0.4l0,0.1c0.1,2.1,0.9,4.1,2.2,5.5&#10;&#9;&#9;c1.5,1.6,3.2,2.4,5.6,2.4l6.9,0h3h0.3v-0.3l0-15.3c-0.1-2-0.9-3.5-2.2-4.8c-1.2-1.2-3-1.9-4.9-2.1c0,0-2.9,0-3.5,0h-5.1v4.8l8,0&#10;&#9;&#9;c1.4,0,2.4,1.5,2.4,3.1l0,0.2C66.8,53.5,64.9,53.3,63.8,53.3z M67.7,62.7h-4.8c-0.9,0-1.3-0.3-1.8-0.8c-0.4-0.4-0.6-0.9-0.6-1.4&#10;&#9;&#9;c0-0.8,0.2-0.9,0.6-1.4c0.6-0.6,1.4-0.8,2.6-0.8c1.4,0,2.7,0.4,3.3,1.2c0.5,0.6,0.7,1.1,0.7,2.5V62.7z"/>
                        <path class="st0" d="M89.9,46.2v12.7c0,2.2-1.4,3.7-3.5,3.7c-2.1,0-3.5-1.4-3.5-3.7V46.2h-6.1v12.7c0,2.8,1,5.2,2.8,6.9&#10;&#9;&#9;c1.7,1.7,4.2,2.6,6.9,2.6c1.2,0,2.4-0.2,3.5-0.6v0.9c0,2.2-1.4,3.9-3.5,3.9h-2.6l-5.4,5.6h8.8c2.4-0.2,4.5-1.1,6.1-2.6&#10;&#9;&#9;c1.6-1.6,2.6-3.7,2.8-6.2V46.2H89.9z"/>
                        <path class="st0" d="M56.6,23.7c12.3,0,23,7,28.5,17.2h6.1c-6-13.4-19.3-22.7-34.7-22.7S27.9,27.5,22,40.9h6.1&#10;&#9;&#9;C33.6,30.6,44.4,23.7,56.6,23.7z"/>
                        <path class="st0" d="M56.6,89.7c-8,0-15.4-3-21-7.8h-7.7c7,8.2,17.3,13.4,28.8,13.4c10.5,0,20-4.3,26.8-11.3H75&#10;&#9;&#9;C69.8,87.6,63.4,89.7,56.6,89.7z"/>
                    </g>
                </svg>